<svg class="animated" id="freepik_stories-digital-transformation" xmlns="http://www.w3.org/2000/svg" viewBox="0 0 500 500" version="1.1" xmlns:xlink="http://www.w3.org/1999/xlink" xmlns:svgjs="http://svgjs.com/svgjs"><style>svg#freepik_stories-digital-transformation:not(.animated) .animable {opacity: 0;}svg#freepik_stories-digital-transformation.animated #freepik--Device--inject-361 {animation: 3s Infinite  linear floating;animation-delay: 0s;}svg#freepik_stories-digital-transformation.animated #freepik--Plant--inject-361 {animation: 3s Infinite  linear floating;animation-delay: 0s;}svg#freepik_stories-digital-transformation.animated #freepik--Arrow--inject-361 {animation: 1.5s Infinite  linear floating;animation-delay: 0s;}svg#freepik_stories-digital-transformation.animated #freepik--Cloud--inject-361 {animation: 3s Infinite  linear floating;animation-delay: 0s;}svg#freepik_stories-digital-transformation.animated #freepik--Character--inject-361 {animation: 3s Infinite  linear floating;animation-delay: 0s;}            @keyframes floating {                0% {                    opacity: 1;                    transform: translateY(0px);                }                50% {                    transform: translateY(-10px);                }                100% {                    opacity: 1;                    transform: translateY(0px);                }            }        .animator-hidden { display: none; }</style><g id="freepik--background-complete--inject-361" class="animable animator-hidden" style="transform-origin: 249.75px 254.56px;"><path d="M99.85,125.1l-3.64-6.32a4.76,4.76,0,0,0-4.41-2.32c-.55,0-1.1.05-1.67,0s-1.1,0-1.65,0a4.76,4.76,0,0,0-4.43,2.32l-3.64,6.3-20-11.57,3.67-6.33a4.72,4.72,0,0,0-.21-5c-.59-.91-1.14-1.87-1.64-2.84A4.81,4.81,0,0,0,58,96.67H50.69l0-23.13H58A4.65,4.65,0,0,0,62.16,71,30.77,30.77,0,0,1,64,67.91a4.65,4.65,0,0,0,.12-4.9l-3.64-6.3,20-11.54,3.64,6.33a4.65,4.65,0,0,0,4.32,2.33c.58,0,1.14,0,1.75,0s1.17,0,1.75,0a4.64,4.64,0,0,0,4.31-2.31l3.66-6.33,20,11.57-3.67,6.35a4.73,4.73,0,0,0,.21,5,29.68,29.68,0,0,1,1.64,2.83,4.81,4.81,0,0,0,4.25,2.69h7.28l0,23.13h-7.28a4.81,4.81,0,0,0-4.25,2.69c-.5,1-1,1.91-1.64,2.82a4.72,4.72,0,0,0-.22,5l3.66,6.36Zm-7.79-9.65a5.72,5.72,0,0,1,5,2.83l3.14,5.45,18.31-10.54-3.17-5.49a5.72,5.72,0,0,1,.25-6c.57-.88,1.11-1.81,1.59-2.74a5.8,5.8,0,0,1,5.14-3.23h6.28l0-21.13h-6.28a5.8,5.8,0,0,1-5.14-3.23,28.71,28.71,0,0,0-1.59-2.74,5.72,5.72,0,0,1-.23-6l3.17-5.49L100.27,46.55,97.1,52a5.6,5.6,0,0,1-5.23,2.81c-.57,0-1.13,0-1.72,0s-1.11,0-1.66,0A5.68,5.68,0,0,1,83.24,52L80.1,46.54,61.8,57.08l3.13,5.43a5.64,5.64,0,0,1-.14,5.95,28.88,28.88,0,0,0-1.74,3A5.64,5.64,0,0,1,58,74.55H51.7V95.67H58a5.81,5.81,0,0,1,5.14,3.24q.74,1.43,1.59,2.76a5.72,5.72,0,0,1,.23,6l-3.16,5.47,18.29,10.57,3.14-5.44a5.76,5.76,0,0,1,5.34-2.82c.54,0,1.12.05,1.63,0s1.07,0,1.59,0Zm-1.91-11.7a19.94,19.94,0,0,1-2.43-.15,18.74,18.74,0,0,1-16-16h0a18.63,18.63,0,1,1,18.47,16.19ZM72.67,87.43a17.65,17.65,0,1,0,5-14.76,17.74,17.74,0,0,0-5,14.76Z" style="fill: rgb(235, 235, 235); transform-origin: 90.155px 85.135px;" id="el1cofpphd928" class="animable"></path><path d="M448.81,339.78l-5.51-9.54-2.92,1.68a2.62,2.62,0,0,1-2.75-.09,14.33,14.33,0,0,0-1.43-.82,2.63,2.63,0,0,1-1.45-2.33V325.3h-11v3.38a2.63,2.63,0,0,1-1.45,2.33,15.55,15.55,0,0,0-1.43.82,2.6,2.6,0,0,1-2.74.09l-2.93-1.68-5.5,9.54,2.93,1.69a2.63,2.63,0,0,1,1.28,2.43c0,.27,0,.54,0,.82s0,.54,0,.81a2.63,2.63,0,0,1-1.27,2.42l-2.94,1.7,5.5,9.54,2.93-1.68a2.62,2.62,0,0,1,2.75.09,13.4,13.4,0,0,0,1.42.82,2.63,2.63,0,0,1,1.45,2.33v3.38h11v-3.38a2.63,2.63,0,0,1,1.45-2.33,12.47,12.47,0,0,0,1.42-.82,2.62,2.62,0,0,1,2.75-.09l2.93,1.68,5.51-9.54L445.88,348a2.63,2.63,0,0,1-1.28-2.43c0-.27,0-.54,0-.81s0-.55,0-.82a2.63,2.63,0,0,1,1.28-2.43Zm-10.54,4.94a9,9,0,1,1-9-9A9,9,0,0,1,438.27,344.72Z" style="fill: rgb(235, 235, 235); transform-origin: 429.255px 344.715px;" id="el49hp0mwmtu2" class="animable"></path><path d="M143.86,195.89l-5.51-9.55L135.43,188a2.62,2.62,0,0,1-2.75-.09,15.48,15.48,0,0,0-1.42-.83,2.61,2.61,0,0,1-1.45-2.33v-3.37h-11v3.37a2.63,2.63,0,0,1-1.45,2.33,15.64,15.64,0,0,0-1.43.83,2.6,2.6,0,0,1-2.74.09l-2.92-1.69-5.51,9.55,2.93,1.69A2.62,2.62,0,0,1,109,200c0,.27,0,.54,0,.81s0,.54,0,.81a2.6,2.6,0,0,1-1.28,2.42l-2.94,1.7,5.51,9.55,2.93-1.69a2.58,2.58,0,0,1,2.74.1c.46.29.94.57,1.42.82a2.61,2.61,0,0,1,1.45,2.33v3.37h11v-3.37a2.62,2.62,0,0,1,1.44-2.33c.49-.25,1-.53,1.42-.82a2.6,2.6,0,0,1,2.75-.1l2.93,1.69,5.51-9.55-2.93-1.69a2.6,2.6,0,0,1-1.28-2.42c0-.27,0-.55,0-.82s0-.54,0-.81a2.62,2.62,0,0,1,1.28-2.43Zm-10.54,4.93a9,9,0,1,1-9-9A9,9,0,0,1,133.32,200.82Z" style="fill: rgb(235, 235, 235); transform-origin: 124.32px 200.8px;" id="elfpa7zhe7sf" class="animable"></path><polygon points="372.45 463.95 371.45 463.95 371.45 426.96 341.51 386.09 341.51 349.99 342.51 349.99 342.51 385.77 372.45 426.63 372.45 463.95" style="fill: rgb(235, 235, 235); transform-origin: 356.98px 406.97px;" id="elbag0c65xvrp" class="animable"></polygon><path d="M342,350.54a3.16,3.16,0,1,1,3.16-3.16A3.17,3.17,0,0,1,342,350.54Zm0-5.32a2.16,2.16,0,1,0,2.16,2.16A2.16,2.16,0,0,0,342,345.22Z" style="fill: rgb(235, 235, 235); transform-origin: 342px 347.38px;" id="elx7physa1ijo" class="animable"></path><polygon points="364.74 463.95 363.74 463.95 363.74 431.9 333.8 391.03 333.8 370.99 334.8 370.99 334.8 390.7 364.74 431.57 364.74 463.95" style="fill: rgb(235, 235, 235); transform-origin: 349.27px 417.47px;" id="elemz325c6urf" class="animable"></polygon><path d="M334.3,371.54a3.16,3.16,0,1,1,3.16-3.16A3.17,3.17,0,0,1,334.3,371.54Zm0-5.32a2.16,2.16,0,1,0,2.16,2.16A2.16,2.16,0,0,0,334.3,366.22Z" style="fill: rgb(235, 235, 235); transform-origin: 334.3px 368.38px;" id="ely9xskreihpd" class="animable"></path><rect x="378.88" y="381.15" width="1" height="82.8" style="fill: rgb(235, 235, 235); transform-origin: 379.38px 422.55px;" id="elbrdptodrtdm" class="animable"></rect><path d="M379.38,381.65a3.16,3.16,0,1,1,3.16-3.16A3.16,3.16,0,0,1,379.38,381.65Zm0-5.32a2.16,2.16,0,1,0,2.16,2.16A2.16,2.16,0,0,0,379.38,376.33Z" style="fill: rgb(235, 235, 235); transform-origin: 379.38px 378.49px;" id="elkc5bfsyaobm" class="animable"></path><polygon points="387.03 463.27 386.03 463.27 386.03 439.09 406.36 400.75 406.36 322.14 407.36 322.14 407.36 401 387.03 439.34 387.03 463.27" style="fill: rgb(235, 235, 235); transform-origin: 396.695px 392.705px;" id="elgz9aftwkhp5" class="animable"></polygon><path d="M406.86,322.64a3.16,3.16,0,1,1,3.16-3.16A3.17,3.17,0,0,1,406.86,322.64Zm0-5.32a2.16,2.16,0,1,0,2.16,2.16A2.16,2.16,0,0,0,406.86,317.32Z" style="fill: rgb(235, 235, 235); transform-origin: 406.86px 319.48px;" id="elzytjp0mjz9g" class="animable"></path><polygon points="394.15 463.4 393.15 463.4 393.15 443.18 417.11 400.79 417.11 355.65 418.11 355.65 418.11 401.06 394.15 443.44 394.15 463.4" style="fill: rgb(235, 235, 235); transform-origin: 405.63px 409.525px;" id="elamigoubbls9" class="animable"></polygon><path d="M417.61,356.16a3.17,3.17,0,1,1,3.16-3.16A3.17,3.17,0,0,1,417.61,356.16Zm0-5.33a2.17,2.17,0,1,0,2.16,2.17A2.17,2.17,0,0,0,417.61,350.83Z" style="fill: rgb(235, 235, 235); transform-origin: 417.6px 352.99px;" id="elieyb3lm02u" class="animable"></path><polygon points="128.55 463.95 127.55 463.95 127.55 356.63 157.49 315.77 157.49 279.99 158.49 279.99 158.49 316.09 158.39 316.23 128.55 356.96 128.55 463.95" style="fill: rgb(235, 235, 235); transform-origin: 143.02px 371.97px;" id="el91a8s97g3v" class="animable"></polygon><path d="M158,280.54a3.16,3.16,0,1,1,3.16-3.16A3.17,3.17,0,0,1,158,280.54Zm0-5.32a2.16,2.16,0,1,0,2.16,2.16A2.16,2.16,0,0,0,158,275.22Z" style="fill: rgb(235, 235, 235); transform-origin: 158px 277.38px;" id="elx1g6hem4haa" class="animable"></path><polygon points="136.26 463.95 135.26 463.95 135.26 361.57 135.36 361.44 165.2 320.7 165.2 300.99 166.2 300.99 166.2 321.03 166.1 321.16 136.26 361.9 136.26 463.95" style="fill: rgb(235, 235, 235); transform-origin: 150.73px 382.47px;" id="elxercype09gb" class="animable"></polygon><path d="M165.7,301.54a3.16,3.16,0,1,1,3.16-3.16A3.17,3.17,0,0,1,165.7,301.54Zm0-5.32a2.16,2.16,0,1,0,2.16,2.16A2.16,2.16,0,0,0,165.7,296.22Z" style="fill: rgb(235, 235, 235); transform-origin: 165.7px 298.38px;" id="eluqu8h0e23oe" class="animable"></path><rect x="120.12" y="231.15" width="1" height="232.8" style="fill: rgb(235, 235, 235); transform-origin: 120.62px 347.55px;" id="elbuu4spiz9gt" class="animable"></rect><path d="M120.62,231.65a3.16,3.16,0,1,1,3.16-3.16A3.16,3.16,0,0,1,120.62,231.65Zm0-5.32a2.16,2.16,0,1,0,2.16,2.16A2.16,2.16,0,0,0,120.62,226.33Z" style="fill: rgb(235, 235, 235); transform-origin: 120.62px 228.49px;" id="elxtll3jxkrcf" class="animable"></path><polygon points="113.97 463.27 112.97 463.27 112.97 369.34 92.64 331 92.64 262.14 93.64 262.14 93.64 330.75 113.97 369.09 113.97 463.27" style="fill: rgb(235, 235, 235); transform-origin: 103.305px 362.705px;" id="elg63cfg2hhn" class="animable"></polygon><path d="M93.14,262.64a3.16,3.16,0,1,1,3.16-3.16A3.17,3.17,0,0,1,93.14,262.64Zm0-5.32a2.16,2.16,0,1,0,2.16,2.16A2.16,2.16,0,0,0,93.14,257.32Z" style="fill: rgb(235, 235, 235); transform-origin: 93.14px 259.48px;" id="elc42ml3o4r8b" class="animable"></path><polygon points="106.86 463.4 105.86 463.4 105.86 373.44 81.89 331.06 81.89 295.65 82.89 295.65 82.89 330.79 106.86 373.18 106.86 463.4" style="fill: rgb(235, 235, 235); transform-origin: 94.375px 379.525px;" id="el0wkcffcxd4kk" class="animable"></polygon><path d="M82.39,296.16A3.17,3.17,0,1,1,85.55,293,3.17,3.17,0,0,1,82.39,296.16Zm0-5.33A2.17,2.17,0,1,0,84.55,293,2.17,2.17,0,0,0,82.39,290.83Z" style="fill: rgb(235, 235, 235); transform-origin: 82.38px 292.99px;" id="el2oyzzzmu2b7" class="animable"></path></g><g id="freepik--Floor--inject-361" class="animable animator-hidden" style="transform-origin: 250px 464px;"><path d="M40.37,464c134.3-.61,285-.62,419.26,0-134.3.62-285,.61-419.26,0Z" style="fill: rgb(38, 50, 56); transform-origin: 250px 464px;" id="el22bo2a9pzy3" class="animable"></path></g><g id="freepik--Device--inject-361" class="animable" style="transform-origin: 337.74px 258.28px;"><path d="M441.24,52.56H259.59a18.55,18.55,0,0,0-18.38,18.72v374A18.56,18.56,0,0,0,259.59,464H441.24a18.57,18.57,0,0,0,18.39-18.72v-374A18.55,18.55,0,0,0,441.24,52.56Zm6.91,381.11c0,9.84-7.37,17.8-16.47,17.8H269.17c-9.11,0-16.48-8-16.48-17.8V85.45c0-20,7.37-21,16.48-21h32.55c1.89,0,3.44,2.15,3.44,4.82v1.15c0,6.24,3.41,6.26,7.62,6.26h75.28c4.23,0,7.62,0,7.62-6.26V69.24c0-2.67,1.52-4.82,3.45-4.82h32.55c9.1,0,16.47,2.67,16.47,21Z" style="fill: rgb(38, 50, 56); transform-origin: 350.42px 258.28px;" id="elrhdudvsixi9" class="animable"></path><path d="M431.45,52.56H249.8a18.54,18.54,0,0,0-18.37,18.72v374A18.56,18.56,0,0,0,249.8,464H431.45a18.57,18.57,0,0,0,18.4-18.72v-374A18.56,18.56,0,0,0,431.45,52.56Zm6.91,381.11c0,9.84-7.37,17.8-16.46,17.8H259.38c-9.11,0-16.48-8-16.48-17.8V85.45c0-20,7.37-21,16.48-21h32.55c1.89,0,3.44,2.15,3.44,4.82v1.15c0,6.24,3.42,6.26,7.62,6.26h75.28c4.24,0,7.62,0,7.62-6.26V69.24c0-2.67,1.53-4.82,3.45-4.82H421.9c9.09,0,16.46,2.67,16.46,21Z" style="fill: rgb(55, 71, 79); transform-origin: 340.64px 258.28px;" id="elht4lp0n0vq" class="animable"></path><path d="M350.9,68.85H330.36a1.25,1.25,0,0,1-1.26-1.26h0a1.26,1.26,0,0,1,1.26-1.27H350.9a1.27,1.27,0,0,1,1.27,1.27h0A1.26,1.26,0,0,1,350.9,68.85Z" style="fill: rgb(255, 255, 255); transform-origin: 340.635px 67.585px;" id="elnginvljnma" class="animable"></path><path d="M438.36,85.45V433.67c0,9.84-7.37,17.8-16.46,17.8H259.38c-9.11,0-16.48-8-16.48-17.8V85.45c0-20,7.37-21,16.48-21h32.55c1.89,0,3.44,2.15,3.44,4.82v1.15c0,6.24,3.42,6.26,7.62,6.26h75.28c4.24,0,7.62,0,7.62-6.26V69.24c0-2.67,1.53-4.82,3.45-4.82H421.9C431,64.42,438.36,67.09,438.36,85.45Z" style="fill: rgb(255, 255, 255); transform-origin: 340.63px 257.945px;" id="elhvcmc1l4b5m" class="animable"></path><g id="freepik--u5Zjqx--inject-361" class="animable" style="transform-origin: 282.815px 73.22px;"><path d="M286.32,72.25l-.32.31-.18.18a4.27,4.27,0,0,0-6.06,0l-.17-.18-.31-.31h0l0,0c.14-.12.26-.24.4-.35a4.24,4.24,0,0,1,.92-.59,4.74,4.74,0,0,1,1.22-.41c.2,0,.41-.06.61-.08H283l.42,0a4.94,4.94,0,0,1,1.12.27,5.12,5.12,0,0,1,.75.35,4.66,4.66,0,0,1,.72.51l.34.3Z" style="fill: rgb(199, 199, 199); transform-origin: 282.815px 71.78px;" id="elktttb0hz7fd" class="animable"></path><path d="M280.76,73.73l-.5-.5a3.58,3.58,0,0,1,5.06,0l-.49.49a2.87,2.87,0,0,0-2-.84A2.82,2.82,0,0,0,280.76,73.73Z" style="fill: rgb(199, 199, 199); transform-origin: 282.79px 72.9564px;" id="el0r6eb96e1hg" class="animable"></path><path d="M284.33,74.22l-.5.5a1.44,1.44,0,0,0-1-.44,1.47,1.47,0,0,0-1,.44l-.49-.5A2.16,2.16,0,0,1,284.33,74.22Z" style="fill: rgb(199, 199, 199); transform-origin: 282.835px 74.1695px;" id="elve6uhq67cdj" class="animable"></path><path d="M283.24,75.16a.45.45,0,1,1-.45-.44A.45.45,0,0,1,283.24,75.16Z" style="fill: rgb(199, 199, 199); transform-origin: 282.79px 75.17px;" id="elzkjcmm50to" class="animable"></path></g><circle cx="256.94" cy="73.2" r="1.3" style="fill: rgb(199, 199, 199); transform-origin: 256.94px 73.2px;" id="elknt9shao7wf" class="animable"></circle><circle cx="261.02" cy="73.2" r="1.3" style="fill: rgb(199, 199, 199); transform-origin: 261.02px 73.2px;" id="elrbzv9pw8m9o" class="animable"></circle><circle cx="265.1" cy="73.2" r="1.3" style="fill: rgb(199, 199, 199); transform-origin: 265.1px 73.2px;" id="elin7gadd56f" class="animable"></circle><path d="M267.89,73.2a1.3,1.3,0,1,1,1.29,1.29A1.3,1.3,0,0,1,267.89,73.2Z" style="fill: rgb(199, 199, 199); transform-origin: 269.19px 73.19px;" id="el801zk1y90w" class="animable"></path><path d="M272,73.2a1.3,1.3,0,1,1,1.29,1.29A1.3,1.3,0,0,1,272,73.2Z" style="fill: rgb(199, 199, 199); transform-origin: 273.3px 73.19px;" id="elndrqgkeulte" class="animable"></path><path d="M423.7,76H413.15V71.14H423.7Zm-10-.53h9.47V71.68h-9.47Z" style="fill: rgb(199, 199, 199); transform-origin: 418.425px 73.57px;" id="elgo85y7618p9" class="animable"></path><rect x="414.03" y="71.97" width="6.8" height="3.23" style="fill: rgb(199, 199, 199); transform-origin: 417.43px 73.585px;" id="elix1tktnl61p" class="animable"></rect><rect x="423.7" y="72.27" width="0.94" height="2.61" style="fill: rgb(199, 199, 199); transform-origin: 424.17px 73.575px;" id="elvtb2qqutism" class="animable"></rect><rect x="269.95" y="274.03" width="17.67" height="17.67" style="fill: rgb(55, 71, 79); transform-origin: 278.785px 282.865px;" id="el2j7im5dcopu" class="animable"></rect><rect x="269.95" y="221.03" width="17.67" height="17.67" style="fill: rgb(55, 71, 79); transform-origin: 278.785px 229.865px;" id="elqxi82vdd1xq" class="animable"></rect><rect x="269.95" y="318.64" width="17.67" height="17.67" style="fill: rgb(55, 71, 79); transform-origin: 278.785px 327.475px;" id="elo2ft0rtv9b" class="animable"></rect><rect x="242.9" y="291.7" width="27.05" height="27.05" style="fill: rgb(55, 71, 79); transform-origin: 256.425px 305.225px;" id="elw32zelcx57" class="animable"></rect><rect x="215.85" y="264.65" width="27.05" height="27.05" style="fill: rgb(255, 255, 255); transform-origin: 229.375px 278.175px;" id="elfi4gunxp7nf" class="animable"></rect><rect x="215.85" y="397.63" width="27.05" height="27.05" style="fill: rgb(255, 255, 255); transform-origin: 229.375px 411.155px;" id="ele0mc7860clk" class="animable"></rect><rect x="215.85" y="166.67" width="27.05" height="27.05" style="fill: rgb(255, 255, 255); transform-origin: 229.375px 180.195px;" id="el13o7zyme0ayn" class="animable"></rect><rect x="215.85" y="109.14" width="27.05" height="27.05" style="fill: rgb(255, 255, 255); transform-origin: 229.375px 122.665px;" id="el8dgzqtrr12" class="animable"></rect><rect x="215.85" y="318.64" width="27.05" height="51.95" style="fill: rgb(255, 255, 255); transform-origin: 229.375px 344.615px;" id="elimv1d228y9m" class="animable"></rect><rect x="242.9" y="370.59" width="27.05" height="27.05" style="fill: rgb(55, 71, 79); transform-origin: 256.425px 384.115px;" id="elrprm5r8jjwg" class="animable"></rect><rect x="242.9" y="424.68" width="27.05" height="30.85" style="fill: rgb(55, 71, 79); transform-origin: 256.425px 440.105px;" id="el7qg6id4ids3" class="animable"></rect><rect x="242.9" y="193.98" width="27.05" height="27.05" style="fill: rgb(55, 71, 79); transform-origin: 256.425px 207.505px;" id="eloha09e5vwrk" class="animable"></rect><rect x="242.9" y="82.09" width="27.05" height="27.05" style="fill: rgb(55, 71, 79); transform-origin: 256.425px 95.615px;" id="elf9fei7zg88" class="animable"></rect><rect x="269.95" y="397.67" width="17.67" height="17.67" style="fill: rgb(55, 71, 79); transform-origin: 278.785px 406.505px;" id="el7m93vhgw4kd" class="animable"></rect><rect x="269.95" y="162.24" width="17.67" height="17.67" style="fill: rgb(55, 71, 79); transform-origin: 278.785px 171.075px;" id="ellrvurz62288" class="animable"></rect><rect x="269.95" y="64.42" width="17.67" height="17.67" style="fill: rgb(55, 71, 79); transform-origin: 278.785px 73.255px;" id="elwixunlza2n" class="animable"></rect><rect x="287.62" y="242.04" width="14.32" height="14.32" style="fill: rgb(55, 71, 79); transform-origin: 294.78px 249.2px;" id="elch8qhzpk1mh" class="animable"></rect><rect x="301.94" y="233.08" width="9.03" height="9.03" style="fill: rgb(55, 71, 79); transform-origin: 306.455px 237.595px;" id="eljksa8vexiti" class="animable"></rect><rect x="301.94" y="282.67" width="9.03" height="9.03" style="fill: rgb(55, 71, 79); transform-origin: 306.455px 287.185px;" id="el9quccrsh6ki" class="animable"></rect><rect x="301.94" y="376.15" width="9.03" height="9.03" style="fill: rgb(55, 71, 79); transform-origin: 306.455px 380.665px;" id="el2ryrw9ocslf" class="animable"></rect><rect x="310.97" y="363.02" width="5.39" height="5.39" style="fill: rgb(55, 71, 79); transform-origin: 313.665px 365.715px;" id="eld5743fmm8dk" class="animable"></rect><rect x="316.36" y="349.99" width="3.05" height="3.05" style="fill: rgb(55, 71, 79); transform-origin: 317.885px 351.515px;" id="elyom52vt8fte" class="animable"></rect><rect x="316.36" y="428.53" width="3.05" height="3.05" style="fill: rgb(55, 71, 79); transform-origin: 317.885px 430.055px;" id="elblh00xtcp4l" class="animable"></rect><rect x="316.36" y="105.57" width="3.05" height="3.05" style="fill: rgb(55, 71, 79); transform-origin: 317.885px 107.095px;" id="el083xdrmzmcla" class="animable"></rect><rect x="310.97" y="295.83" width="5.39" height="5.39" style="fill: rgb(55, 71, 79); transform-origin: 313.665px 298.525px;" id="elim8yafqccm" class="animable"></rect><rect x="310.97" y="213.17" width="5.39" height="5.39" style="fill: rgb(55, 71, 79); transform-origin: 313.665px 215.865px;" id="elaztcqf0rhtj" class="animable"></rect><rect x="301.94" y="437.72" width="9.03" height="9.03" style="fill: rgb(55, 71, 79); transform-origin: 306.455px 442.235px;" id="elz8oxbl2jxce" class="animable"></rect><rect x="287.62" y="336.44" width="14.32" height="14.32" style="fill: rgb(55, 71, 79); transform-origin: 294.78px 343.6px;" id="elibybwyyves" class="animable"></rect><rect x="287.62" y="291.7" width="14.32" height="14.32" style="fill: rgb(55, 71, 79); transform-origin: 294.78px 298.86px;" id="elh0dw5429dhe" class="animable"></rect></g><g id="freepik--Plant--inject-361" class="animable" style="transform-origin: 70.6223px 406.27px;"><path d="M99.43,378.84c-11.63,15.75-23.76,34-26.72,53.79,0,.3.45.4.52.1a118.27,118.27,0,0,1,5.14-15.82c7.65-2.1,15.15-3.83,19.17-11.42,4.1-7.8,3.58-18,2.8-26.48C100.28,378.56,99.67,378.54,99.43,378.84Z" style="fill: #F6BE00; transform-origin: 86.7941px 405.775px;" id="elbfgms2xjqc" class="animable"></path><path d="M78.49,416.77C83.71,405,90.42,393.26,99,383.62c.06-.06.14,0,.09.1-5.58,6.86-9.82,14.34-14,21.95,3.86-3.91,8.08-7.41,11.72-11.56.08-.08.19,0,.12.12-3.62,4.35-7.58,9.07-12.3,12.29-1.26,2.33-2.54,4.68-3.83,7,.31-.18.64-.34,1-.5,0,0,.1.06,0,.09-.36.18-.72.37-1.09.53-.61,1.11-1.22,2.22-1.85,3.32C78.72,417.23,78.38,417,78.49,416.77Z" style="fill: rgb(38, 50, 56); transform-origin: 88.7871px 400.339px;" id="elt5qglvuxd0l" class="animable"></path><path d="M82.37,412.67a66.71,66.71,0,0,0,8.93-6c.08-.06.19.05.11.11a46.56,46.56,0,0,1-8.91,6.07A.13.13,0,0,1,82.37,412.67Z" style="fill: rgb(38, 50, 56); transform-origin: 86.8988px 409.752px;" id="elzvq00tuyxve" class="animable"></path><path d="M71.37,429.7c0,.24.43.23.42,0,.06-6.51,0-13.05.11-19.58,1.66-3.36,5.24-5.23,7.73-7.92a34.93,34.93,0,0,0,4.64-6.46,46.38,46.38,0,0,0,5.38-18c.69-7-2-29.93-4.89-29.13-1.52.42-6.44,11.79-7.75,15.55a109.57,109.57,0,0,0-4.63,19.07C70,398.57,70.2,414.29,71.37,429.7Z" style="fill: #F6BE00; transform-origin: 80.1427px 389.233px;" id="el3r20uk8i784" class="animable"></path><path d="M71.32,401.63l0,0c.36-8.23,2.21-16.54,4-24.53,1.87-8.6,4-16.7,8.48-24.37.08-.14.29,0,.22.13a90,90,0,0,0-6.81,18.71c.29-.47.65-.91,1-1.34.12-.18.41,0,.29.16a12.39,12.39,0,0,1-1.39,2l0,0c-1.53,6.15-2.62,12.44-3.56,18.71l.21-.24a.06.06,0,0,1,.1.07c-.12.21-.25.42-.38.63-.47,3.18-.9,6.36-1.34,9.51,5.67-4.85,10.51-10.56,13.24-17.6a0,0,0,1,1,0,0c-2.67,7.3-6.89,13.79-13.38,18.22l-.36,2.54c0,.17-.31.13-.31,0,0-.75,0-1.51.07-2.26A.17.17,0,0,1,71.32,401.63Z" style="fill: rgb(38, 50, 56); transform-origin: 78.2832px 378.507px;" id="elhyxbjst5vi6" class="animable"></path><path d="M74,389.7c4.33-6.46,8.38-12.74,11.55-19.89a.08.08,0,0,1,.14.06c-2.67,7.1-6.41,14.3-11.47,20C74.11,390,73.9,389.83,74,389.7Z" style="fill: rgb(38, 50, 56); transform-origin: 79.832px 379.85px;" id="elpolivjvse2" class="animable"></path><path d="M79.75,368.21c1.79-3.17,3.69-6.26,5.38-9.5,0-.09.17,0,.13.08A49.71,49.71,0,0,1,80,368.37.16.16,0,0,1,79.75,368.21Z" style="fill: rgb(38, 50, 56); transform-origin: 82.5067px 363.536px;" id="elpdqc4i5h38q" class="animable"></path><path d="M79.05,369.59s0,.06,0,.06A0,0,0,0,1,79.05,369.59Z" style="fill: rgb(38, 50, 56); transform-origin: 79.05px 369.62px;" id="eldjz0yljvlr4" class="animable"></path><path d="M67,410.88a65.74,65.74,0,0,1-1.52,12.82c.07.46.14.92.21,1.4a61.84,61.84,0,0,0,2.29-14.29.45.45,0,0,0,0-.44h0A95.31,95.31,0,0,0,66.52,391c-2-12-6.42-23.43-14.75-32.39a.6.6,0,0,0-.93.18c-3.36,8.56-2.19,18.77.68,27.31a50.19,50.19,0,0,0,6.61,13C61,403.09,64.64,406.49,67,410.88Z" style="fill: #F6BE00; transform-origin: 58.4154px 391.781px;" id="elm4z57xdmic" class="animable"></path><path d="M52.75,362.61c7.9,12.83,13.4,28,14.08,43.18,0,.27-.44.34-.48.07-.19-1.36-.4-2.71-.61-4.06h0c-3.27-3.13-6.62-6.44-9-10.35a.08.08,0,0,1,.12-.09,108.58,108.58,0,0,0,8.71,9.48c-.57-3.35-1.24-6.64-2-9.89l-.63-.74c-.14-.16.09-.39.24-.23l.19.21a113.46,113.46,0,0,0-4.14-13.12c-2-2.4-4.26-4.47-5.72-7.36a.06.06,0,1,1,.1-.06c1.18,1.65,2.32,3.31,3.66,4.85.53.61,1.11,1.18,1.67,1.77a102,102,0,0,0-6.47-13.48A.17.17,0,0,1,52.75,362.61Z" style="fill: rgb(38, 50, 56); transform-origin: 59.6444px 384.295px;" id="elwwxva2cili" class="animable"></path><path d="M54.35,378.43c2.55,3.44,5.47,6.72,7.84,10.27.07.1-.08.21-.17.13a52.2,52.2,0,0,1-7.84-10.3C54.11,378.42,54.28,378.33,54.35,378.43Z" style="fill: rgb(38, 50, 56); transform-origin: 58.1857px 383.622px;" id="elq53b6k4fzh9" class="animable"></path><path d="M62.55,389.5l.11.11c.07.07,0,.19-.12.11l-.11-.1A.08.08,0,1,1,62.55,389.5Z" style="fill: rgb(38, 50, 56); transform-origin: 62.5465px 389.611px;" id="elw6fc1p9cqnb" class="animable"></path><path d="M40.37,387.27a39.3,39.3,0,0,0,8.34,19.56,20.83,20.83,0,0,0,6.76,5.28c2.93,1.45,6,3.12,9,4.31a59.16,59.16,0,0,1,3.19,11.35l.3-1c-1.95-16.7-12.76-31-26.59-40.15A.67.67,0,0,0,40.37,387.27Z" style="fill: #F6BE00; transform-origin: 54.1632px 407.151px;" id="el8jcij9aktk" class="animable"></path><path d="M45.15,392.2c-.1-.08,0-.26.14-.18a56.53,56.53,0,0,1,17.62,21.72c.1.23-.21.43-.34.2-.65-1.13-1.3-2.22-2-3.3h0c-3.15-.59-6.14-2.81-8.49-4.92-.06-.06,0-.15.1-.1a19.15,19.15,0,0,0,4,2.81c1.29.65,2.67,1.06,4,1.59-1.17-1.86-2.39-3.64-3.66-5.37a36.63,36.63,0,0,1-9.49-5.33c-.09-.07,0-.21.09-.15A94.65,94.65,0,0,0,56,403.88a77.56,77.56,0,0,0-6.23-7.26c-1.07-.56-2.16-1.13-3.2-1.74-.08-.05,0-.19.07-.16a11.22,11.22,0,0,1,2.46,1.21C47.81,394.66,46.52,393.42,45.15,392.2Z" style="fill: rgb(38, 50, 56); transform-origin: 54.0195px 403.021px;" id="el7s2xl8jjsf4" class="animable"></path><path d="M45.44,398a3.39,3.39,0,0,1,.53.38.05.05,0,0,1-.06.09,3.86,3.86,0,0,1-.56-.32C45.26,398.06,45.35,397.91,45.44,398Z" style="fill: rgb(38, 50, 56); transform-origin: 45.6533px 398.226px;" id="elg5ywry1svm9" class="animable"></path><polygon points="89.57 463.95 51.67 463.95 54.73 429.44 55.4 421.83 85.84 421.83 86.51 429.44 89.57 463.95" style="fill: rgb(69, 90, 100); transform-origin: 70.62px 442.89px;" id="el7l9vc96ghdj" class="animable"></polygon><polygon points="86.51 429.44 54.73 429.44 55.4 421.83 85.84 421.83 86.51 429.44" style="fill: rgb(38, 50, 56); transform-origin: 70.62px 425.635px;" id="elgahpxlzkyjr" class="animable"></polygon><rect x="53.59" y="416.51" width="34.06" height="7.53" style="fill: rgb(69, 90, 100); transform-origin: 70.62px 420.275px;" id="elkf4txn7tbeo" class="animable"></rect></g><g id="freepik--Arrow--inject-361" class="animable" style="transform-origin: 245px 149.755px;"><polygon points="202.22 114.83 202.22 123.55 225.98 123.55 225.98 126.6 184.62 126.6 184.62 134 225.98 134 225.98 166.71 190.87 166.71 190.87 175.43 225.98 175.43 225.98 187.72 133.56 187.72 133.56 161.14 161.94 161.14 161.94 152.05 133.56 152.05 133.56 143.33 145.05 143.33 145.05 137.06 133.56 137.06 133.56 111.77 225.98 111.77 225.98 114.83 202.22 114.83" style="fill: #F6BE00; transform-origin: 179.77px 149.745px;" id="elufoug3h376" class="animable"></polygon><polygon points="224.47 114.83 224.47 111.77 289 111.77 289 114.81 227.51 114.81 227.51 114.83 224.47 114.83" style="fill: #F6BE00; transform-origin: 256.735px 113.3px;" id="elmj6h3un80a" class="animable"></polygon><rect x="224.47" y="123.55" width="3.04" height="3.05" style="fill: #F6BE00; transform-origin: 225.99px 125.075px;" id="elmuw2ew8t0f" class="animable"></rect><rect x="224.47" y="134" width="3.04" height="32.71" style="fill: #F6BE00; transform-origin: 225.99px 150.355px;" id="elk7alf0e4qj" class="animable"></rect><polygon points="329.73 203.74 325.69 206.07 287.49 228.13 287.49 187.74 224.47 187.74 224.47 175.43 227.51 175.43 227.51 184.7 290.52 184.7 290.52 222.87 324.18 203.44 328.21 201.11 329.73 203.74" style="fill: #F6BE00; transform-origin: 277.1px 201.78px;" id="elgqu620ghpxq" class="animable"></polygon><polygon points="337.38 199.32 337.38 181.78 340.42 181.78 340.42 194.06 384.05 168.86 385.57 171.49 337.38 199.32" style="fill: #F6BE00; transform-origin: 361.475px 184.09px;" id="elzh3ze51ccq" class="animable"></polygon><polygon points="397.51 138.42 290.52 76.64 290.52 98.8 310.1 98.8 310.1 101.84 287.49 101.84 287.49 71.38 399.03 135.79 397.51 138.42" style="fill: #F6BE00; transform-origin: 343.26px 104.9px;" id="el0qjbi0u8f7ko" class="animable"></polygon><polygon points="359.52 126.43 357.96 129.04 353.98 126.64 332.5 113.73 302.37 113.73 302.37 126.59 225.99 126.59 225.99 123.55 299.33 123.55 299.33 110.7 333.34 110.7 355.53 124.04 359.52 126.43" style="fill: #F6BE00; transform-origin: 292.755px 119.87px;" id="elo7rky9s5nw" class="animable"></polygon><polygon points="295.77 178.49 223.18 178.49 223.18 175.46 294.56 175.46 324.21 147.33 420.18 148.24 420.15 151.27 325.41 150.38 295.77 178.49" style="fill: #F6BE00; transform-origin: 321.68px 162.91px;" id="elti2bqsotj1t" class="animable"></polygon><path d="M363.64,127.74a4.9,4.9,0,1,1-4.9-4.9A4.9,4.9,0,0,1,363.64,127.74Z" style="fill: #F6BE00; transform-origin: 358.74px 127.74px;" id="el70hlbuuxwc8" class="animable"></path><circle cx="333.86" cy="126.6" r="4.9" style="fill: #F6BE00; transform-origin: 333.86px 126.6px;" id="elw4mlh8rqeg" class="animable"></circle><path d="M385.85,138.48a4.9,4.9,0,1,1-4.9-4.89A4.9,4.9,0,0,1,385.85,138.48Z" style="fill: #F6BE00; transform-origin: 380.95px 138.49px;" id="elca62tzncxi" class="animable"></path><path d="M406.65,139.32a4.9,4.9,0,1,1-4.9-4.89A4.9,4.9,0,0,1,406.65,139.32Z" style="fill: #F6BE00; transform-origin: 401.75px 139.33px;" id="elamxpxywoyff" class="animable"></path><path d="M333.86,202.42a4.9,4.9,0,1,1-4.89-4.89A4.89,4.89,0,0,1,333.86,202.42Z" style="fill: #F6BE00; transform-origin: 328.96px 202.43px;" id="elgavic7ekjx" class="animable"></path><path d="M307.14,202.86a4.9,4.9,0,1,1-4.89-4.9A4.89,4.89,0,0,1,307.14,202.86Z" style="fill: #F6BE00; transform-origin: 302.24px 202.86px;" id="el1z7oqjjecvw" class="animable"></path><path d="M406.65,159.25a4.9,4.9,0,1,1-4.9-4.89A4.9,4.9,0,0,1,406.65,159.25Z" style="fill: #F6BE00; transform-origin: 401.75px 159.26px;" id="elrbqfav0nl7d" class="animable"></path><path d="M343.8,181.87a4.9,4.9,0,1,1-4.9-4.89A4.9,4.9,0,0,1,343.8,181.87Z" style="fill: #F6BE00; transform-origin: 338.9px 181.88px;" id="eltkpz5nsbd" class="animable"></path><path d="M390.75,169.4a4.9,4.9,0,1,1-4.9-4.9A4.9,4.9,0,0,1,390.75,169.4Z" style="fill: #F6BE00; transform-origin: 385.85px 169.4px;" id="eljryw87nqrgd" class="animable"></path><path d="M425.07,149.75a4.9,4.9,0,1,1-4.9-4.89A4.9,4.9,0,0,1,425.07,149.75Z" style="fill: #F6BE00; transform-origin: 420.17px 149.76px;" id="elwdn0u4mfc0i" class="animable"></path><path d="M293.9,113.3a4.9,4.9,0,1,1-4.89-4.9A4.89,4.89,0,0,1,293.9,113.3Z" style="fill: #F6BE00; transform-origin: 289px 113.3px;" id="elyly01wtj2yb" class="animable"></path><circle cx="285.22" cy="145.05" r="4.9" style="fill: #F6BE00; transform-origin: 285.22px 145.05px;" id="eljmtswtztb4s" class="animable"></circle><path d="M315,100.66a4.9,4.9,0,1,1-4.89-4.9A4.89,4.89,0,0,1,315,100.66Z" style="fill: #F6BE00; transform-origin: 310.1px 100.66px;" id="elggcmnutbsm" class="animable"></path><polygon points="309.16 137.06 225.99 137.06 225.99 134.02 307.91 134.02 316.5 125.43 332.68 125.43 332.68 128.47 317.75 128.47 309.16 137.06" style="fill: #F6BE00; transform-origin: 279.335px 131.245px;" id="els636yqqpa8" class="animable"></polygon><polygon points="376.91 136.97 376.91 140.01 317.94 140.01 291.22 166.71 224.42 166.71 224.42 163.67 289.97 163.67 316.67 136.97 376.91 136.97" style="fill: #F6BE00; transform-origin: 300.665px 151.84px;" id="elkmvgbev1r0o" class="animable"></polygon><rect x="64.93" y="129.66" width="68.63" height="7.4" style="fill: #F6BE00; transform-origin: 99.245px 133.36px;" id="elqjucyo88tsr" class="animable"></rect><rect x="102.61" y="180.33" width="30.95" height="7.4" style="fill: #F6BE00; transform-origin: 118.085px 184.03px;" id="el3hfh6qnepu2" class="animable"></rect><rect x="113.7" y="111.77" width="19.87" height="7.4" style="fill: #F6BE00; transform-origin: 123.635px 115.47px;" id="elkrcagbtzyor" class="animable"></rect><rect x="100" y="111.77" width="7.4" height="7.4" style="fill: #F6BE00; transform-origin: 103.7px 115.47px;" id="elc7j41q1xvkm" class="animable"></rect><rect x="88.74" y="180.33" width="7.4" height="7.4" style="fill: #F6BE00; transform-origin: 92.44px 184.03px;" id="el2imgmtbxkk" class="animable"></rect><rect x="122.71" y="161.14" width="39.23" height="8.72" style="fill: #F6BE00; transform-origin: 142.325px 165.5px;" id="elwwavv51hnrs" class="animable"></rect><rect x="106.26" y="143.34" width="27.3" height="8.71" style="fill: #F6BE00; transform-origin: 119.91px 147.695px;" id="el525r1fqbhhi" class="animable"></rect><rect x="91.07" y="143.34" width="8.71" height="8.71" style="fill: #F6BE00; transform-origin: 95.425px 147.695px;" id="el1t18f1epgj" class="animable"></rect><rect x="226.3" y="143.34" width="56.66" height="3.04" style="fill: #F6BE00; transform-origin: 254.63px 144.86px;" id="el8cl8soudvon" class="animable"></rect><path d="M235,154.65a4.9,4.9,0,1,1,4.9,4.9A4.9,4.9,0,0,1,235,154.65Z" style="fill: #F6BE00; transform-origin: 239.9px 154.65px;" id="elf7oz1u3qlf" class="animable"></path><rect x="244" y="153.33" width="56.66" height="3.04" style="fill: #F6BE00; transform-origin: 272.33px 154.85px;" id="elijiuaxxntfc" class="animable"></rect><polygon points="304.69 187.71 294.56 177.58 296.71 175.44 304.69 183.41 330.36 157.73 401.75 157.73 401.75 160.77 331.62 160.77 304.69 187.71" style="fill: #F6BE00; transform-origin: 348.155px 172.72px;" id="el54uzdhyhge8" class="animable"></polygon><polygon points="303.32 203.94 301.17 201.79 336.22 166.74 359.15 166.74 370.43 178.03 368.28 180.17 357.89 169.78 337.48 169.78 303.32 203.94" style="fill: #F6BE00; transform-origin: 335.8px 185.34px;" id="elkme8806khnq" class="animable"></polygon></g><g id="freepik--Cloud--inject-361" class="animable" style="transform-origin: 395.872px 274.553px;"><path d="M336.53,293.14a16.42,16.42,0,0,0,15.21,16.38v.05h93.05a19.31,19.31,0,0,0,1.8-38.54,32.53,32.53,0,0,0-63-10.17,19,19,0,0,0-8.64-2.05,19.31,19.31,0,0,0-19.27,18.12,15.69,15.69,0,0,0-2.67-.22A16.44,16.44,0,0,0,336.53,293.14Z" style="fill: #F6BE00; transform-origin: 400.337px 274.618px;" id="el9i5mbxc8qmm" class="animable"></path><g id="elv9ar3coa9"><path d="M336.53,293.14a16.42,16.42,0,0,0,15.21,16.38v.05h93.05a19.31,19.31,0,0,0,1.8-38.54,32.53,32.53,0,0,0-63-10.17,19,19,0,0,0-8.64-2.05,19.31,19.31,0,0,0-19.27,18.12,15.69,15.69,0,0,0-2.67-.22A16.44,16.44,0,0,0,336.53,293.14Z" style="opacity: 0.1; transform-origin: 400.337px 274.618px;" class="animable" id="el83bnr4vg7u6"></path></g><path d="M327.6,293.14a16.42,16.42,0,0,0,15.21,16.38v.05h93.05A19.31,19.31,0,0,0,437.67,271a32.54,32.54,0,0,0-63.06-10.17,19,19,0,0,0-8.63-2.05,19.31,19.31,0,0,0-19.28,18.12,15.6,15.6,0,0,0-2.67-.22A16.44,16.44,0,0,0,327.6,293.14Z" style="fill: #F6BE00; transform-origin: 391.647px 274.553px;" id="elo6aidf6i46l" class="animable"></path><polygon points="389.16 309.57 387.83 309.57 371.4 287.14 371.4 274.5 372.45 274.5 372.45 286.79 389.16 309.57" style="fill: rgb(255, 255, 255); transform-origin: 380.28px 292.035px;" id="eli6cpvm33np" class="animable"></polygon><path d="M371.92,271a2,2,0,0,0-.52,4,1.82,1.82,0,0,0,.52.08,1.78,1.78,0,0,0,.53-.08,2,2,0,0,0-.53-4Zm0,3a1,1,0,0,1,0-1.93,1,1,0,1,1,0,1.93Z" style="fill: rgb(255, 255, 255); transform-origin: 371.925px 273.031px;" id="el8c3torf0a6k" class="animable"></path><polygon points="381.73 309.57 380.43 309.57 366.02 289.9 366.02 286.28 367.07 286.28 367.07 289.55 381.73 309.57" style="fill: rgb(255, 255, 255); transform-origin: 373.875px 297.925px;" id="el2ie0uxkqxjg" class="animable"></polygon><path d="M366.55,282.79a2,2,0,0,0-2,2,2,2,0,0,0,1.5,1.94,1.84,1.84,0,0,0,.53.08,1.77,1.77,0,0,0,.52-.08,2,2,0,0,0,1.49-1.94A2,2,0,0,0,366.55,282.79Zm0,3a1,1,0,1,1,1-1A1,1,0,0,1,366.55,285.78Z" style="fill: rgb(255, 255, 255); transform-origin: 366.57px 284.8px;" id="elpkn2unqztdl" class="animable"></path><rect x="393.41" y="260.39" width="1.05" height="49.18" style="fill: rgb(255, 255, 255); transform-origin: 393.935px 284.98px;" id="elg1jvzpqwtgj" class="animable"></rect><path d="M393.93,256.88a2,2,0,0,0-.52,4,1.82,1.82,0,0,0,.52.08,1.78,1.78,0,0,0,.53-.08,2,2,0,0,0-.53-4Zm0,3a1,1,0,0,1,0-1.92,1,1,0,1,1,0,1.92Z" style="fill: rgb(255, 255, 255); transform-origin: 393.933px 258.911px;" id="elwmkw5kmx2o" class="animable"></path><polygon points="410.92 275.42 410.92 287.74 401.13 306.22 401.13 309.57 400.07 309.57 400.07 305.96 409.87 287.49 409.87 275.42 410.92 275.42" style="fill: rgb(255, 255, 255); transform-origin: 405.495px 292.495px;" id="elqf9mx6aibos" class="animable"></polygon><path d="M410.39,271.91a2,2,0,0,0-.52,4,1.72,1.72,0,0,0,.52.08,1.89,1.89,0,0,0,.53-.08,2,2,0,0,0-.53-4Zm0,3a1,1,0,0,1,0-1.94,1,1,0,0,1,0,1.94Z" style="fill: rgb(255, 255, 255); transform-origin: 410.393px 273.942px;" id="elruhkhd38f4" class="animable"></path><polygon points="418.01 283 418.01 287.78 408.67 304.3 408.67 309.57 407.62 309.57 407.62 304.02 416.94 287.5 416.94 283 418.01 283" style="fill: rgb(255, 255, 255); transform-origin: 412.815px 296.285px;" id="elzd2wsxhdmt" class="animable"></polygon><path d="M417.47,279.49a2,2,0,0,0-.53,4,1.84,1.84,0,0,0,.53.08,2,2,0,0,0,.54-.08,2,2,0,0,0-.54-4Zm0,3a1,1,0,1,1,1-1A1,1,0,0,1,417.47,282.48Z" style="fill: rgb(255, 255, 255); transform-origin: 417.475px 281.521px;" id="elynodbn6id2q" class="animable"></path></g><g id="freepik--Character--inject-361" class="animable" style="transform-origin: 202.664px 279.03px;"><path d="M184.34,132.17c-1.27,10.24-4.51,22.31-.91,32.38,2.83,7.89,9.61,13.58,16.78,17.45,15.79,8.51,38.61,11.23,51.33-4.11,5.08-6.12,6.91-19.57-.29-25.1-3.7-2.83-8.29-3.78-12.6-5.31a18.87,18.87,0,0,1-11.89-11.22c-4.43-10.94-2.78-18.57-2.9-30a8.14,8.14,0,0,0-2.31-6.19,14.45,14.45,0,0,0-6.47-4.28,14.3,14.3,0,0,0-6.83-1.68c-5.09.13-10.3,4.41-14.43,7s-6.23,5.56-6.92,10.49C185.94,118.41,185.19,125.3,184.34,132.17Z" style="fill: rgb(38, 50, 56); transform-origin: 218.901px 141.503px;" id="elop466883dzi" class="animable"></path><path d="M182.69,136.91c1.76-9.31,3.7-18.57,5.59-27.85,0,0,.1,0,.09,0-1.33,7.68-2.55,15.38-4,23s-3.36,15.15-4.1,22.76c-1.65,17.08,15.4,25.42,30,25.71.66,0,.56,1.07-.11,1-12.82-.67-27.75-6.23-30.53-20.43C178.15,153.42,181.25,144.52,182.69,136.91Z" style="fill: rgb(38, 50, 56); transform-origin: 194.978px 145.297px;" id="elpgqw0pw8uds" class="animable"></path><path d="M223.11,105.25a.14.14,0,0,1,.28,0c-.3,9.44-1.54,20.42,3.18,29a23.9,23.9,0,0,0,10.2,9.86c3.42,1.72,7.15,2.13,10.79,3.15,14.23,4,12.85,23.47,1.76,30.26-.24.15-.49-.25-.26-.4,7.84-5.31,11.11-15.83,5.7-24.15-4.34-6.68-13.78-5.41-20.11-9.32C221.53,135.59,221.75,118.89,223.11,105.25Z" style="fill: rgb(38, 50, 56); transform-origin: 240.215px 141.332px;" id="elmsh7uzf31k" class="animable"></path><path d="M154.49,453.11C152.14,452.26,99,410,98,407.06c-.4-1.1,40.56-53,40.56-53l32.64,26.61-26.34,34.8s13.1,25.3,13.87,28.6S156.84,454,154.49,453.11Z" style="fill: rgb(247, 169, 160); transform-origin: 134.599px 403.626px;" id="elmtqpaz62tb" class="animable"></path><path d="M150.12,425.42c-.11-.15-.15-.25-.13-.29S150,425.23,150.12,425.42Z" style="fill: #F6BE00; transform-origin: 150.053px 425.272px;" id="el19os6vxjj9f" class="animable"></path><path d="M154.49,453.11C152.14,452.26,99,410,98,407.05c-.35-1,4.12-7.48,10.16-15.66,8.25,9.68,40.41,46.94,44,44.49,1.41-1-.14-5.71-1.23-8.55,3.55,7.05,7.42,15,7.82,16.72C159.45,447.32,156.84,454,154.49,453.11Z" style="fill: rgb(38, 50, 56); transform-origin: 128.423px 422.29px;" id="el5dtw1ck210y" class="animable"></path><path d="M121.63,375.6l33.71,27s55.8-65.83,57.85-75.72c2.32-11.24,8.79-99.29,8.64-103.68-.19-5.32-6.05-28.7-6.05-28.7H174s-5.85,115.14-7.07,118.7C165.61,317,121.63,375.6,121.63,375.6Z" style="fill: rgb(38, 50, 56); transform-origin: 171.731px 298.55px;" id="el6wcafiy6jlm" class="animable"></path><path d="M158.64,393.85c-5.39-5.2-26.41-21.89-29-23.26-.06,0-.14.07-.1.12,1.9,2.26,19.79,16.94,29,23.31C158.6,394.09,158.72,393.94,158.64,393.85Z" style="fill: rgb(55, 71, 79); transform-origin: 144.098px 382.314px;" id="elhvdxxsx3x7n" class="animable"></path><path d="M217.85,211.79a11.62,11.62,0,0,0-1.7-.4,9.52,9.52,0,0,1-1.76-.68,12.94,12.94,0,0,1-3.22-2.28,12.06,12.06,0,0,1-2.48-4c-.36-.84-2.07-5.32-2.08-5.35s-.18,0-.16.06c.12.62,1.29,4.5,1.64,5.46a12.53,12.53,0,0,0,2.58,4.63,10.31,10.31,0,0,0,3.57,2.4,8,8,0,0,0,1.91.52,3.14,3.14,0,0,0,1.75-.11C218,212,217.93,211.82,217.85,211.79Z" style="fill: rgb(55, 71, 79); transform-origin: 212.199px 205.647px;" id="elscnwn0tyfj" class="animable"></path><path d="M180.88,196.52,180,219.64l-1,23.12L176.78,289c-.42,7.7-.83,15.4-1.32,23.1-.05,1-.13,1.94-.22,2.93a1.37,1.37,0,0,1-.1.45c-.06.13-.12.26-.18.37l-.39.64c-.27.41-.54.81-.82,1.21-1.12,1.59-2.28,3.13-3.45,4.67-2.34,3.07-4.74,6.09-7.14,9.11q-7.2,9.06-14.53,18l-14.74,17.84,14.38-18.14c4.79-6,9.58-12.09,14.31-18.17q3.55-4.57,7-9.18c1.16-1.53,2.31-3.08,3.41-4.65.28-.39.55-.78.8-1.18s.56-.8.54-1.14c.08-.92.15-1.86.2-2.83.46-7.7.84-15.4,1.23-23.11l2.43-46.21,1.28-23.1Z" style="fill: rgb(55, 71, 79); transform-origin: 157.385px 281.92px;" id="eluydjzyu76dk" class="animable"></path><path d="M214,320.72c-.31,2.84-.58,4.95-.83,6.14-1.15,5.55-19.26,28.75-34.91,48l-10.73-67.5c1.91-23.95,6.43-112.91,6.43-112.91h20.83Z" style="fill: rgb(55, 71, 79); transform-origin: 190.765px 284.655px;" id="elqdg96cdm33l" class="animable"></path><path d="M272.66,451.8c-2.2,1.21-69.07,13.23-71.91,12.07-1.08-.42-13.06-65.47-13.06-65.47l41.53-7L238,434.2s27.65,6.85,30.64,8.46S274.85,450.61,272.66,451.8Z" style="fill: rgb(247, 169, 160); transform-origin: 230.536px 427.674px;" id="elqidk0djhyt" class="animable"></path><path d="M249,436.81c-.19,0-.29-.05-.31-.1Z" style="fill: #F6BE00; transform-origin: 248.845px 436.76px;" id="el8etzpgo3vgr" class="animable"></path><path d="M272.65,451.8c-2.19,1.21-69.06,13.24-71.9,12.07-1-.38-2.91-8-5.06-18,12.72.19,61.94.62,62.45-3.68.2-1.69-4.38-3.66-7.24-4.72,7.64,2,16.14,4.3,17.72,5.16C271.58,444.26,274.85,450.6,272.65,451.8Z" style="fill: rgb(38, 50, 56); transform-origin: 234.53px 450.71px;" id="ellu6f01bwke" class="animable"></path><path d="M207.47,194.48s-1.1,17.87-6,30.6c0,0-7.11,4.43-7.85,5.13L235.92,421l-43.42,8.44S175.44,337,174,330.67c-2.33-10.18-20.77-96.67-21.59-101.58-1.71-10.28,7.78-34.61,7.78-34.61Z" style="fill: rgb(38, 50, 56); transform-origin: 194.062px 311.96px;" id="eldn30dr93m7t" class="animable"></path><path d="M231.49,411.45c-11.94,1.79-34.77,6.63-37.58,7.79-.07,0,0,.15,0,.15,3-.05,30.85-5.57,37.59-7.73C231.65,411.62,231.61,411.43,231.49,411.45Z" style="fill: rgb(55, 71, 79); transform-origin: 212.738px 415.419px;" id="ell20n3qb9unf" class="animable"></path><path d="M165.53,211.79c.87-.19,1.79-.13,2.68-.24A21.17,21.17,0,0,0,171,211a20.06,20.06,0,0,0,4.94-2,10.55,10.55,0,0,0,3.59-3.8c.5-.82,2.81-5.21,2.84-5.25s.27,0,.25.09a56.64,56.64,0,0,1-2.11,5.38,10.38,10.38,0,0,1-3.7,4.46,16.24,16.24,0,0,1-5.48,2.1,16.93,16.93,0,0,1-3,.35,8,8,0,0,1-2.8-.27C165.32,212,165.4,211.82,165.53,211.79Z" style="fill: rgb(55, 71, 79); transform-origin: 174.011px 206.145px;" id="elwjiing4w9b" class="animable"></path><path d="M202.47,224.6A72,72,0,0,0,191,229.8c-.14.08-.05.3.1.24,3.86-1.62,7.79-3.16,11.55-5A.25.25,0,0,0,202.47,224.6Z" style="fill: rgb(55, 71, 79); transform-origin: 196.834px 227.325px;" id="elhhofmpgub5p" class="animable"></path><path d="M203.93,198.26c0-.14-.25-.17-.25,0a126,126,0,0,1-.76,12.82c-.19,2-1.88,12.89-5.31,12.07-.57-.14-.86-.71-.94-1.58a13.84,13.84,0,0,1,.49-3.35c.4-2.28.72-4.57.94-6.88a62.88,62.88,0,0,0,0-12.94.11.11,0,0,0-.22,0,118.37,118.37,0,0,1-1.21,17.85c-.45,2.84-1.92,7.1,1,7.57s5.05-6.68,5.43-8.64A65.61,65.61,0,0,0,203.93,198.26Z" style="fill: rgb(55, 71, 79); transform-origin: 200.021px 210.993px;" id="elnedkz3cdtdd" class="animable"></path><path d="M197.7,223.42a19.48,19.48,0,0,0-.79,2.26,5.19,5.19,0,0,0-.34,1.86.14.14,0,0,0,.24.05,6.37,6.37,0,0,0,.81-1.8c.27-.7.55-1.4.8-2.1A.38.38,0,0,0,197.7,223.42Z" style="fill: rgb(55, 71, 79); transform-origin: 197.507px 225.405px;" id="elratx1u0djm" class="animable"></path><path d="M163.74,194.48c-1.18,4.53-2.3,9.07-3.32,13.64s-2,9.16-2.56,13.79l-.16,1.74c0,.57,0,1.15,0,1.73l.51,3.43,1.31,6.9,2.8,13.76,11.47,55,11.49,55L190.94,387l5.62,27.53-6.1-27.42-6-27.46-11.71-55c-3.79-18.34-7.62-36.68-11.25-55.06l-2.66-13.8-1.25-6.91-.48-3.52a27.7,27.7,0,0,1,.26-3.54c.65-4.66,1.7-9.23,2.79-13.78S162.48,199,163.74,194.48Z" style="fill: rgb(55, 71, 79); transform-origin: 176.835px 304.505px;" id="elgt83hmwzhrn" class="animable"></path><path d="M204.6,152.4c5.05,25.43,17.9,47.74,25.45,49.46,10.82,2.48,33.49.9,46.79-4.3,3.75-1.47-5.73-29.32-9.85-28.1-5,1.47-27.78,6.17-28.3,6.17-1.12,0-18.49-23.1-22.65-29.08C208.41,135.6,201.85,138.56,204.6,152.4Z" style="fill: rgb(247, 169, 160); transform-origin: 240.831px 171.448px;" id="elolfzwf165q9" class="animable"></path><path d="M285.58,139.81l-15.23,30.42a1.18,1.18,0,0,0,.68,2l16.62,3.67a2.73,2.73,0,0,0,2.68-1.2l15.24-30.42a1.19,1.19,0,0,0-.68-1.95l-16.62-3.67A2.77,2.77,0,0,0,285.58,139.81Z" style="fill: rgb(55, 71, 79); transform-origin: 287.935px 157.279px;" id="el7xjn5z5ce0f" class="animable"></path><path d="M287.56,140.23l-15.23,30.42a1.18,1.18,0,0,0,.68,1.95l16.62,3.67a2.77,2.77,0,0,0,2.68-1.2l15.23-30.42a1.18,1.18,0,0,0-.68-2L290.24,139A2.73,2.73,0,0,0,287.56,140.23Z" style="fill: rgb(69, 90, 100); transform-origin: 289.956px 157.635px;" id="elbvf7bslz589" class="animable"></path><path d="M291.79,142.71a1.45,1.45,0,1,1-1.06-1.75A1.44,1.44,0,0,1,291.79,142.71Z" style="fill: rgb(38, 50, 56); transform-origin: 290.382px 142.367px;" id="el2uq0uhkls3c" class="animable"></path><path d="M292.58,182.48C297,175,297,172.38,304.06,168c4.66-2.86,4.83-7.05-.84-6.67-9.26.62-17,9.1-18.83,12.82Z" style="fill: rgb(247, 169, 160); transform-origin: 295.954px 171.893px;" id="elw1x9g8z6fpd" class="animable"></path><path d="M273.1,198.85s13.88-3.57,19.12-13.63c3-5.72,8.89-16.64,1.27-34.31-1.81-4.19-7.35-8.88-6.89-1,.33,5.62,2.24,9.09,1.84,12.39,0,0-7.77-5.13-11.89-3.15a83.16,83.16,0,0,0-10.42,5.93,18.65,18.65,0,0,0,.93,2s-3.8,2-5.73,8.21Z" style="fill: rgb(247, 169, 160); transform-origin: 279.281px 172.25px;" id="el1d0hfxwy5x2" class="animable"></path><path d="M293.14,180.49c-.29-3.37-1-10.49-3.67-16.11-2.93-6.24-10.25-17.47-14.83-15.26-3.36,1.62-.94,6.15-.94,6.15s-4-4-6.72-1.87c-2.48,1.93-.4,5.33-.4,5.33s-2.84-2-4.87.31c-2.43,2.8,3.93,6.56,3.91,11.52C265.62,171.68,293.14,180.49,293.14,180.49Z" style="fill: rgb(247, 169, 160); transform-origin: 277.148px 164.663px;" id="eltgd0luiv13" class="animable"></path><path d="M283.39,168.57a27.43,27.43,0,0,0-9.55-13.29c-.12-.08-.24,0-.15.06a67.58,67.58,0,0,1,9.64,13.26A0,0,0,0,0,283.39,168.57Z" style="fill: rgb(38, 50, 56); transform-origin: 278.524px 161.923px;" id="eldh5o2numget" class="animable"></path><path d="M277,171.35c-1-2.63-5-9.29-10.33-12.7-.12-.08-.24,0-.14.07A72.27,72.27,0,0,1,277,171.38S277,171.38,277,171.35Z" style="fill: rgb(38, 50, 56); transform-origin: 271.746px 164.998px;" id="elquevgys6pwh" class="animable"></path><path d="M265.32,168.62a41.59,41.59,0,0,0-5,8.43,11.87,11.87,0,0,1,5-8.43Z" style="fill: rgb(38, 50, 56); transform-origin: 262.82px 172.835px;" id="elnupdg77f8s" class="animable"></path><path d="M251.18,172.37l2.08,31.52s-20.76,2.8-26.49-2-19-28.11-22.19-46.6S208,134,218.85,149.71s19.47,25.37,20,25.34S251.18,172.37,251.18,172.37Z" style="fill: rgb(69, 90, 100); transform-origin: 228.518px 172.092px;" id="elje659cryg7l" class="animable"></path><path d="M207.76,143.67a.78.78,0,1,1-.78.78A.78.78,0,0,1,207.76,143.67ZM207,162.88a.79.79,0,1,0,.78-.78A.78.78,0,0,0,207,162.88Zm12.24,0a.78.78,0,1,0,.78-.78A.78.78,0,0,0,219.22,162.88Zm-6.12-9.46a.78.78,0,1,0,.78-.78A.78.78,0,0,0,213.1,153.42Zm6.12,27.9a.78.78,0,1,0,.78-.78A.78.78,0,0,0,219.22,181.32Zm12.23,0a.78.78,0,1,0,.78-.78A.78.78,0,0,0,231.45,181.32Zm12.23,0a.78.78,0,1,0,.78-.78A.78.78,0,0,0,243.68,181.32Zm-30.58-9.46a.78.78,0,1,0,.78-.78A.78.78,0,0,0,213.1,171.86Zm12.23,0a.78.78,0,1,0,.78-.78A.78.78,0,0,0,225.33,171.86Zm24.95.72a.73.73,0,0,0,.3.06.77.77,0,0,0,.57-.26Zm-18.83,27.17a.78.78,0,1,0,.78-.78A.78.78,0,0,0,231.45,199.75Zm12.23,0a.78.78,0,1,0,.78-.78A.78.78,0,0,0,243.68,199.75Zm-18.35-9.46a.78.78,0,1,0,.78-.78A.78.78,0,0,0,225.33,190.29Zm12.23,0a.78.78,0,1,0,.78-.78A.78.78,0,0,0,237.56,190.29Zm12.24,0a.78.78,0,1,0,.78-.78A.77.77,0,0,0,249.8,190.29Z" style="fill: rgb(55, 71, 79); transform-origin: 229.18px 172.1px;" id="el3j587ztaub9" class="animable"></path><path d="M245.59,174.9c0-.1-.18-.09-.18,0a255.29,255.29,0,0,0,1.47,27.78c0,.1.18.08.18,0A257.51,257.51,0,0,0,245.59,174.9Z" style="fill: rgb(38, 50, 56); transform-origin: 246.235px 188.788px;" id="el5ix2mpfoaad" class="animable"></path><g id="elmwwgi5ucbjb"><path d="M236.22,204.56c-3.94-.28-7.53-1-9.45-2.63-5.72-4.76-19-28.1-22.18-46.61-2.34-13.37.48-18.54,6.33-14.45Z" style="opacity: 0.1; transform-origin: 219.994px 172.032px;" class="animable" id="elfr6eany36"></path></g><g id="elq986wy4hw1"><rect x="102.26" y="244" width="97.01" height="61.13" style="fill: #F6BE00; transform-origin: 150.765px 274.565px; transform: rotate(-3.8deg);" class="animable" id="elh0p0fiwxzok"></rect></g><g id="el71i0dqmbwyp"><rect x="102.26" y="244" width="97.01" height="61.13" style="opacity: 0.3; transform-origin: 150.765px 274.565px; transform: rotate(-3.8deg);" class="animable" id="elgisgx45r08"></rect></g><g id="ellnt9otimd6l"><rect x="101.19" y="244.03" width="97.01" height="28.79" style="opacity: 0.1; transform-origin: 149.695px 258.425px; transform: rotate(-3.8deg);" class="animable" id="elmex97uyxpxs"></rect></g><g id="eld025d7s5v5b"><rect x="98.28" y="235.07" width="101.6" height="28.53" style="fill: #F6BE00; transform-origin: 149.08px 249.335px; transform: rotate(-3.8deg);" class="animable" id="elu5x3keb0989"></rect></g><g id="elh9p5av5km6u"><rect x="98.28" y="235.07" width="101.6" height="28.53" style="opacity: 0.3; transform-origin: 149.08px 249.335px; transform: rotate(-3.8deg);" class="animable" id="eloythmg5a57"></rect></g><polygon points="161.58 223.83 162.27 234.17 157.59 234.48 157.2 228.6 139.38 229.78 139.77 235.66 135.1 235.97 134.41 225.63 161.58 223.83" style="fill: rgb(38, 50, 56); transform-origin: 148.34px 229.9px;" id="elhjcapxifsvw" class="animable"></polygon><g id="el65mlzuk4t0h"><rect x="113.25" y="258.98" width="6.62" height="13.63" style="fill: rgb(38, 50, 56); transform-origin: 116.56px 265.795px; transform: rotate(-3.8deg);" class="animable" id="elbvkaf70o0fa"></rect></g><g id="els5jf8s6538i"><rect x="180.19" y="254.53" width="6.62" height="13.63" style="fill: rgb(38, 50, 56); transform-origin: 183.5px 261.345px; transform: rotate(-3.8deg);" class="animable" id="el79f3w42ahdi"></rect></g><path d="M216.34,185.93l-.56,8.55h-55.6s12.12-36.07,31.72-52.38c8.53-7.11,17.85-2.43,21.56,4.69.94,1.8,9,20.78,9,28A13,13,0,0,1,216.34,185.93Z" style="fill: rgb(69, 90, 100); transform-origin: 191.32px 166.523px;" id="el19ugsqr180h" class="animable"></path><path d="M195.53,143.67a.78.78,0,1,1-.78.78A.78.78,0,0,1,195.53,143.67Zm11.45.78a.79.79,0,1,0,.78-.78A.78.78,0,0,0,207,144.45Zm-24.46,18.43a.78.78,0,1,0,.78-.78A.78.78,0,0,0,182.52,162.88Zm12.23,0a.78.78,0,1,0,.78-.78A.78.78,0,0,0,194.75,162.88Zm12.23,0a.79.79,0,1,0,.78-.78A.78.78,0,0,0,207,162.88Zm12.57-.64a.83.83,0,0,0-.33.64.78.78,0,0,0,.78.78h0C219.87,163.2,219.72,162.72,219.55,162.24Zm-30.91-8.82a.78.78,0,1,0,.78-.78A.78.78,0,0,0,188.64,153.42Zm12.23,0a.78.78,0,1,0,.78-.78A.78.78,0,0,0,200.87,153.42Zm12.23,0a.78.78,0,1,0,.78-.78A.78.78,0,0,0,213.1,153.42Zm-42.81,27.9a.78.78,0,1,0,.78-.78A.78.78,0,0,0,170.29,181.32Zm12.23,0a.78.78,0,1,0,.78-.78A.78.78,0,0,0,182.52,181.32Zm12.23,0a.78.78,0,1,0,.78-.78A.78.78,0,0,0,194.75,181.32Zm12.23,0a.79.79,0,1,0,.78-.78A.78.78,0,0,0,207,181.32Zm13-.79a.79.79,0,0,0,0,1.57.77.77,0,0,0,.39-.11c.13-.19.26-.4.38-.61h0a.09.09,0,0,0,0-.05A.78.78,0,0,0,220,180.53Zm-43.6-8.67a.79.79,0,1,0,.79-.78A.78.78,0,0,0,176.4,171.86Zm12.24,0a.78.78,0,1,0,.78-.78A.78.78,0,0,0,188.64,171.86Zm12.23,0a.78.78,0,1,0,.78-.78A.78.78,0,0,0,200.87,171.86Zm12.23,0a.78.78,0,1,0,.78-.78A.78.78,0,0,0,213.1,171.86Zm-48.93,18.43a.78.78,0,1,0,.78-.78A.78.78,0,0,0,164.17,190.29Zm12.23,0a.79.79,0,1,0,.79-.78A.78.78,0,0,0,176.4,190.29Zm12.24,0a.78.78,0,1,0,.78-.78A.78.78,0,0,0,188.64,190.29Zm12.23,0a.78.78,0,1,0,.78-.78A.78.78,0,0,0,200.87,190.29Zm12.23,0a.78.78,0,1,0,.78-.78A.78.78,0,0,0,213.1,190.29Z" style="fill: rgb(55, 71, 79); transform-origin: 192.452px 167.38px;" id="elefhwhtfbp9i" class="animable"></path><path d="M207,180a57.35,57.35,0,0,0-8.13,1.41c-1.32.35-2.62.76-3.92,1.2-.64.22-1.29.42-1.95.61a8.81,8.81,0,0,1-2.09.42,0,0,0,1,0,0,.09,13.6,13.6,0,0,0,2-.05,14.31,14.31,0,0,0,1.93-.38c1.34-.34,2.67-.75,4-1.11,2.71-.72,5.41-1.44,8.17-2A.12.12,0,0,0,207,180Z" style="fill: rgb(38, 50, 56); transform-origin: 198.981px 181.873px;" id="eliotigp15lb" class="animable"></path><path d="M213.82,182.33a61.75,61.75,0,0,0-6.8-.27c-1.14,0-2.27.12-3.4.24-.54,0-1.08.12-1.62.19s-1.17.24-1.76.32c-.06,0-.06.1,0,.09.56-.05,1.13,0,1.7,0l1.69-.06,3.4-.11c2.27-.1,4.53-.17,6.79-.19A.1.1,0,0,0,213.82,182.33Z" style="fill: rgb(38, 50, 56); transform-origin: 207.06px 182.477px;" id="el328zjqz6px" class="animable"></path><path d="M195.3,139.57c-25.78.46-51.8,5-56,11.68-5.57,9-7.63,32-7.5,45.06,0,3.84,29.93,2.94,29.89-1.16,0-5-.68-28.6-.53-29.08.31-1,27.16-13.62,33.65-16.47C205.69,144.83,206.74,139.37,195.3,139.57Z" style="fill: rgb(247, 169, 160); transform-origin: 167.615px 169.161px;" id="elcofwcolhdki" class="animable"></path><path d="M162.4,232.13a4.59,4.59,0,0,1-5.08-1.23,6.77,6.77,0,0,1-3.76,2.67c-2.73.62-4.89-3.38-4.89-3.38a8.39,8.39,0,0,1-4.42,2.19c-2.67.33-5.43-3.4-5.43-3.4a7.33,7.33,0,0,1-5.1-.52c-4.14-2.26-4.57-9.44-4.89-14s3-17.81,3.44-20.4l29.28-2.3s7.25,20.06,6.87,25.48C168.09,221.8,165.68,230.71,162.4,232.13Z" style="fill: rgb(247, 169, 160); transform-origin: 148.621px 212.698px;" id="elj9uodmv6j88" class="animable"></path><path d="M157.78,230.66c1.51-4.77,1.52-9.73,1.82-14.68a.09.09,0,0,0-.17,0c-.24,4.93-1.45,9.74-1.89,14.64A.12.12,0,0,0,157.78,230.66Z" style="fill: rgb(38, 50, 56); transform-origin: 158.569px 223.34px;" id="eligrmrt3lk6" class="animable"></path><path d="M149,230.06a12.89,12.89,0,0,0,.27-3.4c0-1.21,0-2.41,0-3.62-.06-2.42-.17-4.84-.35-7.26,0-.1-.17-.12-.17,0,0,2.42.07,4.83,0,7.24,0,1.21-.06,2.42-.1,3.62a15.64,15.64,0,0,0,0,3.42A.17.17,0,0,0,149,230.06Z" style="fill: rgb(38, 50, 56); transform-origin: 148.922px 222.966px;" id="elbybnagjbdw" class="animable"></path><path d="M138.82,228.88a9.35,9.35,0,0,0,.08-3.08c-.05-1.1-.09-2.2-.13-3.3-.07-2.21-.14-4.41-.13-6.62,0-.11-.17-.12-.17,0,0,2.24-.07,4.48-.07,6.73,0,1.1,0,2.2,0,3.3a8.61,8.61,0,0,0,.29,3C138.73,228.94,138.8,228.92,138.82,228.88Z" style="fill: rgb(38, 50, 56); transform-origin: 138.682px 222.359px;" id="elygct39qd7h" class="animable"></path><path d="M162.45,180.63,130,176.92s4.43-22.43,10.14-27.22S174,139,192.76,138.62c16.75-.39,13.11,9.17.39,13.84-17.91,6.58-30.3,14.57-30.37,15.09S162.45,180.63,162.45,180.63Z" style="fill: rgb(69, 90, 100); transform-origin: 167.02px 159.619px;" id="elqweiytpmch" class="animable"></path><path d="M158.84,143.67a.78.78,0,1,1-.78.78A.78.78,0,0,1,158.84,143.67Zm11.45.78a.78.78,0,1,0,.78-.78A.78.78,0,0,0,170.29,144.45Zm12.23,0a.78.78,0,1,0,.78-.78A.78.78,0,0,0,182.52,144.45Zm12.23,0a.78.78,0,1,0,.78-.78A.78.78,0,0,0,194.75,144.45Zm-60.38,17.66a.77.77,0,0,0-.63.33h0c0,.14-.09.26-.13.4v0a.77.77,0,0,0,.77.78.78.78,0,1,0,0-1.55Zm11.46.77a.78.78,0,1,0,.78-.78A.78.78,0,0,0,145.83,162.88Zm12.23,0a.78.78,0,1,0,.78-.78A.78.78,0,0,0,158.06,162.88Zm13-.77a.77.77,0,0,0-.77.71l1.13-.63A.86.86,0,0,0,171.07,162.11Zm-31.36-8.69a.78.78,0,1,0,.78-.78A.78.78,0,0,0,139.71,153.42Zm12.23,0a.78.78,0,1,0,.78-.78A.78.78,0,0,0,151.94,153.42Zm12.23,0a.78.78,0,1,0,.78-.78A.78.78,0,0,0,164.17,153.42Zm12.23,0a.79.79,0,1,0,.79-.78A.78.78,0,0,0,176.4,153.42Zm13-.77a.78.78,0,0,0-.78.77.8.8,0,0,0,.33.64l1.21-.48a.86.86,0,0,0,0-.16A.78.78,0,0,0,189.42,152.65Zm-49.71,19.21a.78.78,0,1,0,.78-.78A.78.78,0,0,0,139.71,171.86Zm12.23,0a.78.78,0,1,0,.78-.78A.78.78,0,0,0,151.94,171.86Z" style="fill: rgb(55, 71, 79); transform-origin: 164.96px 158.155px;" id="eldjb154ogsja" class="animable"></path><path d="M161.07,173.3c.1,0,.11-.16,0-.18a255.93,255.93,0,0,0-27.62-3.28c-.1,0-.11.17,0,.18A256.23,256.23,0,0,0,161.07,173.3Z" style="fill: rgb(38, 50, 56); transform-origin: 147.26px 171.57px;" id="el3hpubkn0f5g" class="animable"></path><path d="M162.45,180.63c-.09-3.77,0-9.26,0-13.09,0-.2,0-.15.14-.26,9-5.87,18.64-11.13,29-14.13A157.58,157.58,0,0,0,163,167.81l.14-.26c-.15,3.85-.4,9.29-.65,13.08Z" style="fill: rgb(38, 50, 56); transform-origin: 177px 166.89px;" id="el95xtq6ftl9g" class="animable"></path><path d="M184.62,156a23.9,23.9,0,0,1,5.76-1.47,13.73,13.73,0,0,1-5.76,1.47Z" style="fill: rgb(38, 50, 56); transform-origin: 187.5px 155.265px;" id="elqfij8dsg3v7" class="animable"></path><path d="M200.65,140.74c.12,1.13,4.5,8.91,9.56,9.29,1.64.12,2.7-8.84,2.7-8.84l.23-.65,3.2-9-10-8.3-1.46-1.12s-.72,2.52-1.57,5.67l-.12.45q-.09.27-.15.51c-.14.47-.27.95-.39,1.43s-.2.72-.28,1.11-.19.76-.28,1.15A60.22,60.22,0,0,0,200.65,140.74Z" style="fill: rgb(247, 169, 160); transform-origin: 208.495px 136.076px;" id="el2ytnj8ssqza" class="animable"></path><path d="M203.28,127.78a19.15,19.15,0,0,0,9.86,12.76l3.2-9-10-8.3-1.46-1.12S204.13,124.63,203.28,127.78Z" style="fill: rgb(38, 50, 56); transform-origin: 209.81px 131.33px;" id="elh93y252m6bk" class="animable"></path><path d="M230.27,115.57c2.58,16.58-7.06,20-10.63,20.56-3.25.5-14.37,1.8-18.65-14.43s2.6-22.67,10-24.21S227.68,99,230.27,115.57Z" style="fill: rgb(247, 169, 160); transform-origin: 215.187px 116.759px;" id="elp0l2s9f2u5k" class="animable"></path><path d="M226.5,111.37c-.39,0-.76,0-1.15-.06a1.9,1.9,0,0,1-1.17-.29.59.59,0,0,1-.11-.72,1.48,1.48,0,0,1,1.38-.57,2.13,2.13,0,0,1,1.47.55A.64.64,0,0,1,226.5,111.37Z" style="fill: rgb(38, 50, 56); transform-origin: 225.55px 110.543px;" id="elcz1p7pnftuo" class="animable"></path><path d="M215.8,114.6a11.11,11.11,0,0,0,1.15-.08,1.91,1.91,0,0,0,1.17-.31.59.59,0,0,0,.09-.72,1.48,1.48,0,0,0-1.39-.54,2.12,2.12,0,0,0-1.46.58A.63.63,0,0,0,215.8,114.6Z" style="fill: rgb(38, 50, 56); transform-origin: 216.737px 113.766px;" id="elx5fyht4ls8k" class="animable"></path><path d="M218.81,117.93s-.08.07-.07.12c.24,1.12.32,2.44-.63,3,0,0,0,.08,0,.07C219.34,120.71,219.21,119,218.81,117.93Z" style="fill: rgb(38, 50, 56); transform-origin: 218.6px 119.525px;" id="elo4wvqjtu0b" class="animable"></path><path d="M217.59,116.94c-1.83.19-1.32,3.84.38,3.67S219.13,116.78,217.59,116.94Z" style="fill: rgb(38, 50, 56); transform-origin: 217.727px 118.775px;" id="el64r8yxz9j76" class="animable"></path><path d="M216.9,117.23c-.29.26-.55.67-.93.76s-.83-.23-1.17-.56c0,0-.06,0-.06,0,.09.7.46,1.38,1.23,1.38s1.1-.69,1.17-1.42C217.16,117.31,217,117.13,216.9,117.23Z" style="fill: rgb(38, 50, 56); transform-origin: 215.941px 118.005px;" id="elp5bhyy9t9r" class="animable"></path><path d="M225,116.66s.1,0,.1.09c.11,1.14.44,2.42,1.51,2.66,0,0,0,.07,0,.07C225.31,119.47,224.9,117.76,225,116.66Z" style="fill: rgb(38, 50, 56); transform-origin: 225.798px 118.07px;" id="el7d73zcptdi" class="animable"></path><path d="M225.82,115.35c1.81-.38,2.44,3.25.76,3.6S224.31,115.66,225.82,115.35Z" style="fill: rgb(38, 50, 56); transform-origin: 226.255px 117.148px;" id="elsa7nm1urdbm" class="animable"></path><path d="M226.62,115.45c.32.15.67.45,1,.41s.62-.48.81-.91c0,0,.06,0,.07,0,.14.7,0,1.46-.61,1.71s-1.14-.29-1.43-1C226.43,115.61,226.49,115.4,226.62,115.45Z" style="fill: rgb(38, 50, 56); transform-origin: 227.501px 115.836px;" id="eld12kkxnb5iw" class="animable"></path><path d="M220.11,126.87c.3.24.61.58,1,.57a2.9,2.9,0,0,0,1.19-.4s.08,0,.06.06a1.56,1.56,0,0,1-1.39.75,1.22,1.22,0,0,1-1-.92A.06.06,0,0,1,220.11,126.87Z" style="fill: rgb(38, 50, 56); transform-origin: 221.164px 127.337px;" id="el7w53h1m19m" class="animable"></path><path d="M224.21,122.06s.49,1.65.62,2.45c0,.08-.18.14-.45.2,0,0,0,0,0,0a3.81,3.81,0,0,1-3.89-.85.08.08,0,0,1,.1-.13,5.78,5.78,0,0,0,3.61.46c0-.22-.94-2.8-.81-2.82a6.83,6.83,0,0,1,1.87.13c-.92-3.47-2.39-6.76-3.26-10.23a.11.11,0,0,1,.2-.09,59.19,59.19,0,0,1,4,10.88C226.28,122.5,224.55,122.15,224.21,122.06Z" style="fill: rgb(38, 50, 56); transform-origin: 223.33px 118.022px;" id="eltjvffp63q7" class="animable"></path><path d="M201,123c2.86-.1,2.84-6.12,2.84-6.12s5.76-.64,6.73-9.14a12.85,12.85,0,0,1-1.78,7.14s10.05-2.23,13.36-11.22c0,0-1.21,4.53-2.64,6.25,0,0,4.13-1.67,5.82-5.37,0,0,2.33,4.71,3.86,5.91,0,0-2.43-17.74-18.7-14,0,0-10.24,1.85-13,10.44S201,123,201,123Z" style="fill: rgb(38, 50, 56); transform-origin: 212.989px 109.466px;" id="elw4mcvkqkxaa" class="animable"></path><path d="M204.35,122.3s-3.77-5.16-6.12-3.81.56,8.89,3.37,9.88a2.84,2.84,0,0,0,3.77-1.61Z" style="fill: rgb(247, 169, 160); transform-origin: 201.37px 123.431px;" id="el91h4g69590r" class="animable"></path><path d="M199.12,120.63c-.05,0-.05.06,0,.08,2,.75,3,2.54,3.79,4.41a1.57,1.57,0,0,0-2.35-.38.06.06,0,0,0,.06.1,1.76,1.76,0,0,1,1.93.57,9,9,0,0,1,1,1.54c.1.17.41.07.34-.13,0,0,0,0,0,0C203.81,124.28,201.8,120.83,199.12,120.63Z" style="fill: rgb(38, 50, 56); transform-origin: 201.491px 123.833px;" id="el7ql3xkoncew" class="animable"></path><path d="M212.91,141.35l-3.8,7.05L201,138l-2.94,2.71s7.31,15.85,7.44,15.18l3.76-6,3.9,4.92.89-11.16Z" style="fill: rgb(255, 255, 255); transform-origin: 206.055px 146.955px;" id="elqpax4f1w9a" class="animable"></path><path d="M213.9,149.33c.08-1.85.22-3.7.22-5.55,0-.07-.1-.11-.12,0-.57,1.73-.86,8.79-1.05,10.47l0,0c-.16-.21-3.64-4.35-3.68-4.3-.77.94-3.53,5.32-3.73,5.73-1.15-2.52-5.63-11.7-7.06-14.12a.07.07,0,0,0-.12.05c1,2.63,6.88,15,7,15a73.49,73.49,0,0,0,3.93-6.37c.57.88,4,5.5,4.07,5.23A58.37,58.37,0,0,0,213.9,149.33Z" style="fill: rgb(38, 50, 56); transform-origin: 206.24px 149.074px;" id="elu3a6c7str9p" class="animable"></path></g><defs>     <filter id="active" height="200%">         <feMorphology in="SourceAlpha" result="DILATED" operator="dilate" radius="2"></feMorphology>                <feFlood flood-color="#32DFEC" flood-opacity="1" result="PINK"></feFlood>        <feComposite in="PINK" in2="DILATED" operator="in" result="OUTLINE"></feComposite>        <feMerge>            <feMergeNode in="OUTLINE"></feMergeNode>            <feMergeNode in="SourceGraphic"></feMergeNode>        </feMerge>    </filter>    <filter id="hover" height="200%">        <feMorphology in="SourceAlpha" result="DILATED" operator="dilate" radius="2"></feMorphology>                <feFlood flood-color="#ff0000" flood-opacity="0.5" result="PINK"></feFlood>        <feComposite in="PINK" in2="DILATED" operator="in" result="OUTLINE"></feComposite>        <feMerge>            <feMergeNode in="OUTLINE"></feMergeNode>            <feMergeNode in="SourceGraphic"></feMergeNode>        </feMerge>            <feColorMatrix type="matrix" values="0   0   0   0   0                0   1   0   0   0                0   0   0   0   0                0   0   0   1   0 "></feColorMatrix>    </filter></defs></svg>